<svg width="41" height="40" viewBox="0 0 41 40" fill="none" xmlns="http://www.w3.org/2000/svg">
<path d="M29.94 27.1181L38.0502 36.6236L35.2596 39L27.1712 29.5164C24.5551 31.2605 21.67 32.1325 18.516 32.1325C16.4085 32.1325 14.3918 31.7219 12.4661 30.9008C10.5403 30.0796 8.88338 28.975 7.49529 27.5869C6.1072 26.1989 5.0026 24.542 4.18148 22.6162C3.36035 20.6904 2.94976 18.6737 2.94971 16.5663C2.94965 14.4588 3.36024 12.4422 4.18148 10.5164C5.00271 8.59054 6.10732 6.93362 7.49529 5.54558C8.88327 4.15755 10.5402 3.05295 12.4661 2.23177C14.3919 1.41059 16.4086 1 18.516 1C20.6234 1 22.64 1.41059 24.5659 2.23177C26.4917 3.05295 28.1487 4.15755 29.5366 5.54558C30.9246 6.93362 32.0292 8.59054 32.8505 10.5164C33.6717 12.4422 34.0823 14.4588 34.0822 16.5663C34.0822 17.9034 33.9151 19.2115 33.5808 20.4905C33.2465 21.7695 32.7705 22.9613 32.1528 24.066C31.5351 25.1706 30.7975 26.188 29.9399 27.1181H29.94ZM18.5161 28.4697C20.1293 28.4697 21.67 28.1536 23.138 27.5213C24.6059 26.8891 25.8704 26.0425 26.9314 24.9815C27.9923 23.9205 28.839 22.6561 29.4712 21.1881C30.1035 19.7201 30.4196 18.1795 30.4196 16.5662C30.4196 14.9529 30.1035 13.4123 29.4712 11.9443C28.839 10.4763 27.9923 9.21179 26.9314 8.15076C25.8704 7.08974 24.6059 6.24312 23.138 5.61091C21.67 4.9787 20.1293 4.6626 18.5161 4.6626C16.9028 4.6626 15.3621 4.9787 13.8942 5.61091C12.4262 6.24312 11.1617 7.08977 10.1006 8.15085C9.03962 9.21193 8.193 10.4764 7.56079 11.9443C6.92858 13.4121 6.61248 14.9528 6.61248 16.5662C6.61248 18.1796 6.92858 19.7202 7.56079 21.1881C8.193 22.6559 9.03965 23.9204 10.1007 24.9815C11.1618 26.0426 12.4263 26.8892 13.8942 27.5213C15.362 28.1535 16.9027 28.4696 18.5161 28.4697Z" fill="black"/>
</svg>
