<svg width="41" height="40" viewBox="0 0 41 40" fill="none" xmlns="http://www.w3.org/2000/svg">
<path fill-rule="evenodd" clip-rule="evenodd" d="M29.8008 28.1934L37.9721 37.782L36.5548 39L28.3613 29.4114C25.5416 31.552 22.3675 32.6223 18.8391 32.6223C16.6984 32.6223 14.6501 32.2052 12.694 31.3711C10.738 30.537 9.05498 29.4151 7.64505 28.0052C6.23512 26.5953 5.11314 24.9123 4.2791 22.9562C3.44506 21.0001 3.02801 18.9518 3.02795 16.8111C3.0279 14.6705 3.44494 12.6222 4.2791 10.6661C5.11326 8.70995 6.23524 7.02696 7.64505 5.61709C9.05486 4.20723 10.7378 3.08524 12.694 2.25115C14.6502 1.41705 16.6985 1 18.8391 1C20.9797 1 23.028 1.41705 24.9842 2.25115C26.9403 3.08524 28.6233 4.20723 30.0331 5.61709C31.443 7.02696 32.5649 8.70995 33.3991 10.6661C34.2333 12.6222 34.6503 14.6705 34.6502 16.8111C34.6502 19.0108 34.2221 21.0924 33.3659 23.0559C32.5096 25.0194 31.3212 26.7319 29.8006 28.1934L29.8008 28.1934ZM18.8393 30.7621C21.3637 30.7621 23.6963 30.1383 25.8369 28.8908C27.9776 27.6433 29.6717 25.9492 30.9191 23.8086C32.1666 21.668 32.7903 19.3355 32.7904 16.811C32.7905 14.2865 32.1667 11.9539 30.9191 9.8133C29.6716 7.67269 27.9775 5.97866 25.8369 4.7312C23.6964 3.48375 21.3638 2.86002 18.8393 2.86002C16.3147 2.86002 13.9822 3.48375 11.8416 4.7312C9.70105 5.97866 8.00702 7.67269 6.75951 9.8133C5.51199 11.9539 4.88827 14.2865 4.88832 16.811C4.88838 19.3355 5.51211 21.668 6.75951 23.8086C8.0069 25.9492 9.70094 27.6433 11.8416 28.8908C13.9823 30.1383 16.3148 30.7621 18.8393 30.7621Z" fill="black"/>
</svg>
